<svg width="50" height="50" viewBox="0 0 50 50" fill="none" xmlns="http://www.w3.org/2000/svg">
<g clip-path="url(#clip0_139_237)">
<path d="M49.6715 14.5303C49.6715 10.1357 46.4391 6.60059 42.4449 6.60059C37.0348 6.34766 31.5172 6.25 25.8785 6.25H24.1207C18.4957 6.25 12.9684 6.34766 7.55821 6.60156C3.57384 6.60156 0.341414 10.1562 0.341414 14.5508C0.0972735 18.0264 -0.00624208 21.5029 -0.000382707 24.9795C-0.0101483 28.4561 0.100529 31.9359 0.331649 35.4189C0.331649 39.8135 3.56407 43.3779 7.54845 43.3779C13.232 43.6416 19.0621 43.7588 24.9899 43.749C30.9274 43.7686 36.7412 43.6449 42.4313 43.3779C46.4254 43.3779 49.6578 39.8135 49.6578 35.4189C49.8922 31.9326 49.9996 28.4561 49.9899 24.9697C50.012 21.4932 49.9059 18.0133 49.6715 14.5303ZM20.2145 34.5596V15.3701L34.3746 24.96L20.2145 34.5596Z" fill="white"/>
</g>
<defs>
<clipPath id="clip0_139_237">
<rect width="50" height="50" fill="white"/>
</clipPath>
</defs>
</svg>
